<svg
  width="239"
  height="230"
  viewBox="0 0 239 230"
  fill="none"
  xmlns="http://www.w3.org/2000/svg"
>
  <rect x="2" width="236" height="132" rx="14" fill="#212121" />
  <path
    d="M27.4042 124.085L103.404 150.085L68.9054 223.085L38.4054 217.085L13.9054 205.585L27.4042 124.085Z"
    fill="#D9D9D9"
  />
  <path
    d="M28.457 116L66.5 134.5L109.033 143.064L104.576 156.335L23.9994 129.271L28.457 116Z"
    fill="#D9D9D9"
  />
  <line
    x1="28.5729"
    y1="212.426"
    x2="46.856"
    y2="138.4"
    stroke="#AA090B"
    stroke-width="5"
  />
  <line
    x1="37.6067"
    y1="217.018"
    x2="60.1477"
    y2="142.346"
    stroke="#AA090B"
    stroke-width="5"
  />
  <path d="M47 218.188L74.5809 147.175" stroke="#AA090B" stroke-width="5" />
  <circle cx="36" cy="116" r="5" fill="#FFD361" />
  <circle cx="52" cy="111" r="5" fill="#FFD361" />
  <circle cx="68" cy="131" r="5" fill="#FFD361" />
  <circle cx="81.5" cy="132.5" r="3.5" fill="#FFD361" />
  <circle cx="78.5" cy="124.5" r="3.5" fill="#FFD361" />
  <path
    d="M72 120C72 122.209 70.2091 124 68 124C65.7909 124 64 122.209 64 120C64 117.791 65.7909 116 68 116C70.2091 116 72 117.791 72 120Z"
    fill="#FFD361"
  />
  <path
    d="M69 108.5C69 109.881 67.8807 111 66.5 111C65.1193 111 64 109.881 64 108.5C64 107.119 65.1193 106 66.5 106C67.8807 106 69 107.119 69 108.5Z"
    fill="#FFD361"
  />
  <path
    d="M89 121C89 122.657 87.6569 124 86 124C84.3431 124 83 122.657 83 121C83 119.343 84.3431 118 86 118C87.6569 118 89 119.343 89 121Z"
    fill="#FFD361"
  />
  <circle cx="105.5" cy="142.5" r="3.5" fill="#FFD361" />
  <circle cx="93" cy="137" r="5" fill="#FFD361" />
  <circle cx="47.5" cy="121.5" r="3.5" fill="#FFD361" />
  <circle cx="57" cy="122" r="3" fill="#FFD361" />
  <path
    d="M141.136 40.4545V87H131.591L113.068 60.1364H112.773V87H101.523V40.4545H111.205L129.523 67.2727H129.909V40.4545H141.136Z"
    fill="#E50914"
  />
  <path
    d="M175.76 161.999C175.76 161.999 191.554 162.996 200.836 159.754C210.119 156.512 221.859 145.899 221.859 145.899L229.952 192.112L199.903 202.607L175.76 161.999Z"
    fill="#D9D9D9"
  />
  <path
    d="M172.244 160.87C172.244 160.87 188.532 158.215 198.467 154.777C208.668 151.247 223.465 142.982 223.465 142.982L225.252 152.319L176.986 169.175L172.244 160.87Z"
    fill="#D9D9D9"
  />
  <line
    x1="192.017"
    y1="144.306"
    x2="199.51"
    y2="157.82"
    stroke="#FFDA63"
    stroke-width="3"
  />
  <line
    x1="200.954"
    y1="133.399"
    x2="191.933"
    y2="145.945"
    stroke="#FFDA63"
    stroke-width="3"
  />
  <path
    d="M188.997 184.168C193.473 180.658 198.988 178.735 204.677 178.702L206.698 178.69C210.942 179.987 215.555 178.909 218.784 175.865L225.784 169.266L227.656 180.957L229.688 191.706L215.157 197.043L199.644 202.425L188.997 184.168Z"
    fill="#D81F26"
  />
</svg>
