<svg width="239" height="230" viewBox="0 0 239 230" fill="none" xmlns="http://www.w3.org/2000/svg">
<rect x="93" y="143" width="65" height="20" rx="10" fill="#212121"/>
<rect x="2" width="236" height="132" rx="14" fill="#212121"/>
<path d="M27.4042 124.085L103.404 150.085L68.9054 223.085L38.4054 217.085L13.9054 205.585L27.4042 124.085Z" fill="#D9D9D9"/>
<path d="M28.457 116L66.5 134.5L109.033 143.064L104.576 156.335L23.9994 129.271L28.457 116Z" fill="#D9D9D9"/>
<line x1="27.5729" y1="213.426" x2="45.856" y2="139.4" stroke="#AA090B" stroke-width="5"/>
<line x1="37.6067" y1="217.018" x2="60.1477" y2="142.346" stroke="#AA090B" stroke-width="5"/>
<path d="M47 220.188L74.5809 149.175" stroke="#AA090B" stroke-width="5"/>
<circle cx="36" cy="116" r="5" fill="#FFD361"/>
<circle cx="52" cy="111" r="5" fill="#FFD361"/>
<circle cx="68" cy="131" r="5" fill="#FFD361"/>
<circle cx="81.5" cy="132.5" r="3.5" fill="#FFD361"/>
<circle cx="78.5" cy="124.5" r="3.5" fill="#FFD361"/>
<path d="M72 120C72 122.209 70.2091 124 68 124C65.7909 124 64 122.209 64 120C64 117.791 65.7909 116 68 116C70.2091 116 72 117.791 72 120Z" fill="#FFD361"/>
<path d="M69 108.5C69 109.881 67.8807 111 66.5 111C65.1193 111 64 109.881 64 108.5C64 107.119 65.1193 106 66.5 106C67.8807 106 69 107.119 69 108.5Z" fill="#FFD361"/>
<path d="M89 121C89 122.657 87.6569 124 86 124C84.3431 124 83 122.657 83 121C83 119.343 84.3431 118 86 118C87.6569 118 89 119.343 89 121Z" fill="#FFD361"/>
<circle cx="105.5" cy="142.5" r="3.5" fill="#FFD361"/>
<circle cx="93" cy="137" r="5" fill="#FFD361"/>
<circle cx="47.5" cy="121.5" r="3.5" fill="#FFD361"/>
<circle cx="57" cy="122" r="3" fill="#FFD361"/>
<path d="M115.422 93H108.096V41.2H118.308L126.67 72.206V41.2H133.922V93H125.56L115.422 55.482V93Z" fill="#E50914"/>
<path d="M221.181 147.818L228.823 191.448L200.347 201.393L177.568 163.08C177.808 163.089 178.069 163.096 178.348 163.104C179.988 163.147 182.272 163.171 184.85 163.092C189.975 162.935 196.374 162.373 201.168 160.698C205.962 159.024 211.32 155.481 215.429 152.412C217.495 150.869 219.268 149.429 220.524 148.374C220.762 148.175 220.982 147.988 221.181 147.818Z" fill="white" stroke="white" stroke-width="2"/>
<path d="M173.927 162.451C173.579 161.846 173.935 161.079 174.622 160.957C178.727 160.226 190.865 157.939 198.808 155.126C207.025 152.216 218.272 146.08 221.926 144.039C222.522 143.706 223.265 144.052 223.401 144.721L224.839 151.827C224.937 152.314 224.663 152.799 224.195 152.967L178.761 169.205C178.305 169.368 177.798 169.181 177.557 168.762L173.927 162.451Z" fill="white"/>
<line x1="192.017" y1="144.306" x2="199.51" y2="157.82" stroke="#FFDA63" stroke-width="3"/>
<line x1="200.954" y1="133.399" x2="191.933" y2="145.945" stroke="#FFDA63" stroke-width="3"/>
<path d="M200.093 201.211L190.307 184.431C194.479 181.391 199.506 179.732 204.682 179.702L206.555 179.691C211.101 181.023 216.018 179.847 219.47 176.592L225.096 171.29L226.668 181.115L226.67 181.129L226.673 181.143L228.548 191.059L214.821 196.102L200.093 201.211Z" fill="#D81F26" stroke="white" stroke-width="2"/>
</svg>
